<?xml version="1.0" encoding="UTF-8"?>
<svg xmlns="http://www.w3.org/2000/svg" viewBox="0 0 1080 1080">
  <defs>
    <style>
      .cls-1 {
        stroke-width: 2.85462px;
      }

      .cls-1, .cls-2, .cls-3, .cls-4, .cls-5, .cls-6, .cls-7, .cls-8 {
        stroke-miterlimit: 10;
      }

      .cls-1, .cls-2, .cls-3, .cls-8 {
        stroke: #000;
      }

      .cls-1, .cls-3, .cls-4, .cls-9 {
        fill: #fff;
      }

      .cls-10, .cls-6, .cls-7 {
        fill: none;
      }

      .cls-10, .cls-11, .cls-9 {
        stroke-width: 0px;
      }

      .cls-3 {
        stroke-width: 20px;
      }

      .cls-4 {
        stroke-width: .5px;
      }

      .cls-4, .cls-6, .cls-7 {
        stroke: #fff;
      }

      .cls-5 {
        fill: #bb001f;
        stroke: #bb001f;
      }

      .cls-5, .cls-8 {
        stroke-width: 8px;
      }

      .cls-6 {
        stroke-width: 2px;
      }

      .cls-7 {
        stroke-width: 9.9237px;
      }
    </style>
  </defs>
  <g id="Ebene_1" data-name="Ebene 1">
    <g>
      <path class="cls-1" d="M799.28998,535.01001c-.02997-2.55005-.07001-5.10004-.13995-7.63-4.82001-191.63-119-344.92999-259.15002-344.92999s-254.33002,153.29999-259.15002,344.92999c-.06995,2.52997-.10999,5.07996-.13995,7.63-.01001,1.65997-.02002,3.31995-.02002,4.98999,0,60.08997,10.75,116.70001,29.73999,166.40997l.01001.04004c1.77002,4.62994,3.60999,9.19,5.52997,13.69995,44.97003,106.11005,128.46002,177.40002,224.03003,177.40002s179.06-71.28998,224.03003-177.40002c1.91998-4.50995,3.75995-9.07001,5.52997-13.69995l.01001-.04004c18.98999-49.70996,29.73999-106.32001,29.73999-166.40997,0-1.67004-.01001-3.33002-.02002-4.98999ZM300.79999,550.14996c.88,42.27002,7.29004,83.30005,19.08002,122.10004,1.91998,6.32001,3.96997,12.53998,6.15002,18.64996-.29004.03003-.59003.07001-.88.10004-14.85004-45.04999-24.33002-93.52002-25.15002-141,.27002.04999.53003.09998.79999.14996Z"/>
      <path class="cls-7" d="M540,167c-151.5,0-274.32001,166.76996-274.32001,372.5s122.82001,372.5,274.32001,372.5,274.32001-166.77002,274.32001-372.5-122.82001-372.5-274.32001-372.5ZM300.79999,550.14996c.88,42.27002,7.29004,83.30005,19.08002,122.10004,1.91998,6.32001,3.96997,12.53998,6.15002,18.64996-.29004.03003-.59003.07001-.88.10004-14.85004-45.04999-24.33002-93.52002-25.15002-141,.27002.04999.53003.09998.79999.14996Z"/>
      <path class="cls-3" d="M799.28998,535.01001c-.02997-2.55005-.07001-5.10004-.13995-7.63-4.82001-191.63-119-344.92999-259.15002-344.92999s-254.33002,153.29999-259.15002,344.92999c-.06995,2.52997-.10999,5.07996-.13995,7.63-.01001,1.65997-.02002,3.31995-.02002,4.98999,0,60.08997,10.75,116.70001,29.73999,166.40997l.01001.04004c1.77002,4.62994,3.60999,9.19,5.52997,13.69995,44.97003,106.11005,128.46002,177.40002,224.03003,177.40002s179.06-71.28998,224.03003-177.40002c1.91998-4.50995,3.75995-9.07001,5.52997-13.69995l.01001-.04004c18.98999-49.70996,29.73999-106.32001,29.73999-166.40997,0-1.67004-.01001-3.33002-.02002-4.98999Z"/>
      <path class="cls-9" d="M349.69227,519.66944c0-144.92441,85.20367-262.40886,190.30773-262.40886s190.30773,117.48445,190.30773,262.40886h-380.61547Z"/>
      <path class="cls-10" d="M769.70464,450.39114c.04004.21997.07007.44.11011.66998"/>
      <path class="cls-10" d="M765.11479,427.95113c.04004.13.06982.27002.08984.40002"/>
      <line class="cls-10" x1="723.33476" y1="325.56112" x2="723.34477" y2="325.57113"/>
      <path class="cls-10" d="M713.11479,313.7311c.1499.20001-.13989-.20001,0,0"/>
      <path class="cls-10" d="M703.24467,299.78115c.06006.06-.04004-.06,0,0"/>
      <path class="cls-10" d="M694.40483,289.38113s.02002.01001.02002.02002"/>
      <g>
        <circle class="cls-11" cx="540.22953" cy="474.69139" r="50.42617"/>
        <path class="cls-9" d="M514.14478,424.98138c-2.17887,18.25327-.55548,37.59188,7.47555,54.34318.63473,1.26238,2.16876,3.8715,2.85103,5.12605-2.44424-3.18331-4.6353-6.30788-6.56494-9.82489-7.59343-14.11826-10.98105-30.23827-11.68055-46.18715-.04774-1.37348-.07932-2.67692-.04933-4.16953l7.96823.71234h0Z"/>
        <path class="cls-9" d="M496.6377,443.51248c-1.66114,12.32568-.39814,25.19196,3.36571,37.06189,1.7145,5.58831,4.25385,10.82306,7.208,15.91034-5.94547-7.35885-10.63764-15.9354-13.61528-24.95385-3.10887-9.23615-4.92879-19.00048-4.92029-28.79978.00009-.00001,7.96185.78139,7.96185.78139h0Z"/>
        <path class="cls-9" d="M537.1731,417.86258c-3.4786,11.94075-4.14624,24.85157-2.19255,37.14977.86297,5.78135,2.59416,11.33592,4.7576,16.80654-4.78296-8.16244-8.14525-17.34219-9.74625-26.70357-1.69838-9.59625-2.04349-19.52265-.57542-29.2114.00009,0,7.75662,1.95865,7.75662,1.95865h0Z"/>
        <path class="cls-9" d="M515.91016,524.86914c15.7422-8.14567,30.41394-19.73868,39.78739-34.9935,1.26417-1.87305,2.63424-4.87387,3.66876-6.89677-1.26581,3.80858-2.62486,7.37472-4.45548,10.94424-7.43408,14.20279-18.88366,26.0451-31.69845,35.5654-1.11057.80953-2.17221,1.56637-3.42502,2.37832l-3.8772-6.99768h0Z"/>
        <path class="cls-9" d="M541.07001,528.97772c11.1379-5.53434,21.08418-13.79314,28.80341-23.56434,3.6664-4.55262,6.5776-9.59,9.13417-14.88829-2.76065,9.04881-7.23226,17.74233-13.03091,25.26394-5.90548,7.75224-12.97083,14.73323-21.0902,20.21976-.00006-.00007-3.81647-7.03108-3.81647-7.03108h0Z"/>
        <path class="cls-9" d="M497.10532,509.79068c11.83801-3.81348,22.90357-10.49853,31.99215-19.01086,4.30367-3.95565,7.93279-8.50325,11.25003-13.36157-4.07779,8.53657-9.79443,16.46709-16.64883,23.04095-6.99436,6.78618-15.02075,12.63671-23.86683,16.85266-.00005-.00008-2.72652-7.52117-2.72652-7.52117h0Z"/>
        <path class="cls-9" d="M596.7771,475.77585c-14.19137-10.6195-31.01906-18.77332-48.83395-20.56269-2.23674-.32165-5.53468-.24715-7.8062-.2968,3.95548-.51842,7.80812-.85235,11.79196-.75879,17.40613.60573,34.39949,6.45063,49.45715,15.07915-.00006.00016-4.60895,6.53913-4.60895,6.53913h0Z"/>
        <path class="cls-9" d="M589.5116,451.34c-9.83468-7.6132-21.60223-12.96673-33.76063-15.65668-5.69529-1.3162-11.49786-1.74141-17.38073-1.73374,9.34751-1.45823,19.12075-1.22181,28.41749.71988,9.55089,1.93717,18.91298,5.25453,27.38931,10.17168-.00004.00009-4.66544,6.49887-4.66544,6.49887h0Z"/>
        <path class="cls-9" d="M591.39984,499.27197c-8.59093-8.99324-19.42972-16.03997-31.05182-20.51098-5.43567-2.14993-11.11018-3.43471-16.92854-4.30342,9.46041-.04958,19.08946,1.64001,27.99323,4.94488,9.1557,3.33822,17.91931,8.01318,25.56854,14.13809-.00005.00008-5.58141,5.73143-5.58141,5.73143h0Z"/>
      </g>
      <g>
        <path class="cls-11" d="M544.27509,269.45569c24.08157,3.8373,44.37033,21.9081,53.66057,43.60984,10.7101,24.13093,10.9151,51.94291,1.07783,76.205-7.86815-1.28369-16.59911-2.63698-24.51531-3.64338-15.46532-1.95031-31.09661-3.73786-46.67237-3.80645-.00763.0015,1.63482-.57966,1.63323-.57954-.00074.0004-28.94547,15.3173-28.94616,15.3176l1.186-1.31299-7.38391,12.36072c-.00053.00128.11639-.82681.11624-.82657l.56879,13.22009-3.43118-12.77972-.07132-.26572c.00009-.00028.18778-.56148.18787-.56174l4.61566-13.6384.19458-.57489c.00007-.00018.99208-.73859.99225-.7388,0,0,27.37213-17.97861,27.37213-17.97861l.59949-.39377c16.093-4.23601,32.39394-7.13716,48.83444-9.49431,5.35929-.76955,10.6232-1.4977,16.12552-2.13787l-13.11255,10.28149c2.82135-15.23821.65036-32.02838-6.58186-45.55952-6.58774-12.46593-17.64477-21.78789-31.47667-23.07607.00005-.00004,5.02672-33.62641,5.02672-33.62641h0Z"/>
        <g>
          <polygon class="cls-11" points="526.24622 378.96573 497.31027 382.77567 498.89798 382.16135 484.18439 390.70618 485.04648 389.55899 477.81616 403.93866 480.72833 388.10919 480.82413 387.5885 481.59064 386.96167 494.76236 376.19086 495.34833 375.7117 496.3504 375.57642 525.27374 371.67197 526.24622 378.96573 526.24622 378.96573"/>
          <polygon class="cls-11" points="533.1369 381.3038 516.4314 402.37064 516.99512 401.1051 512.93829 412.67621 512.41656 410.97031 518.81219 419.65649 509.87793 413.61227 509.24545 413.18439 509.35611 411.90604 510.41345 399.69003 510.45425 399.21851 510.97736 398.42413 525.76398 375.96881 533.1369 381.3038 533.1369 381.3038"/>
          <polygon class="cls-11" points="525.47101 379.38269 511.00687 362.66525 513.81903 363.35287 498.30984 366.49551 499.15039 365.87198 492.16724 373.74915 496.61166 364.20654 496.77969 363.84576 497.45248 363.58279 512.19098 357.82199 513.50189 357.3096 515.00348 358.5097 532.27191 372.31134 525.47101 379.38269 525.47101 379.38269"/>
        </g>
      </g>
      <g>
        <path class="cls-5" d="M444.61089,720.71487c-34.28345,2.13222-67.38208,5.39399-98.90649,9.69066,28.62842,58.62579,69.82153,103.62613,117.94702,126.92466-9.9082-45.77476-16.32324-91.3177-19.04053-136.61532Z"/>
        <path class="cls-8" d="M604.51501,759.14876c-3.82983,36.30115-9.92993,72.60242-18.29004,108.90357-14.32007,3.90245-29.09985,5.94768-44.20996,5.94768-16.23999,0-32.09009-2.35818-47.3999-6.84489-9.22998-35.99864-15.6001-72.00772-19.13013-108.00635h129.03003Z"/>
        <path class="cls-5" d="M635.08427,720.57247c-2.25415,46.00416-8.71704,92.00857-19.39087,138.01286,49.26465-22.9126,91.44873-68.4791,120.60205-128.1798-32.23047-4.39284-66.10498-7.70542-101.21118-9.83306Z"/>
      </g>
      <path class="cls-9" d="M540,206c60.70331,0,118.33234,33.01311,162.271,92.95789,21.61499,29.48901,38.85535,63.98801,51.24188,102.53879,12.82843,39.92566,19.88312,82.52979,20.96869,126.64835.05542,2.05029.09509,4.26276.12811,7.12952.00934,1.57202.01868,3.14392.01868,4.72546,0,54.47064-9.44733,108.54333-27.32068,156.37231l-.16144.44458c-1.57361,4.19287-3.22595,8.37054-4.91846,12.43457-20.51953,49.49585-49.82965,90.92242-84.76178,119.80109-17.53687,14.49786-36.31079,25.68445-55.80011,33.24902-19.99921,7.76251-40.74664,11.69843-61.66589,11.69843s-41.66666-3.93591-61.66589-11.69843c-19.48932-7.56458-38.26321-18.75116-55.80011-33.24902-34.9321-28.87866-64.24234-70.30524-84.76678-119.81274-1.6832-4.04199-3.33072-8.20691-4.89999-12.38708l-.00845-.03473-.16644-.44568c-17.87332-47.82898-27.32065-101.90167-27.32065-156.37231,0-1.58154.00934-3.15344.01822-4.68121.03345-2.91101.07312-5.12347.129-7.19324,1.08511-44.09909,8.13977-86.70322,20.96823-126.62888,12.38654-38.55078,29.62689-73.04977,51.24188-102.53879,43.93866-59.94478,101.56766-92.95789,162.271-92.95789M540,198c-131.134,0-237.96866,146.6329-242.47867,329.92877-.06543,2.41998-.10287,4.85913-.13089,7.29822-.00943,1.58777-.01877,3.17554-.01877,4.77301,0,57.47668,10.05844,111.62469,27.82678,159.17279l.00931.03833c1.65625,4.42853,3.37778,8.79022,5.17422,13.10413,42.07712,101.49518,120.19614,169.68475,209.61801,169.68475s167.54089-68.18958,209.61786-169.68475c1.79657-4.3139,3.51813-8.6756,5.17438-13.10413l.00934-.03833c17.76831-47.5481,27.82678-101.69611,27.82678-159.17279,0-1.59747-.00934-3.18524-.0188-4.77301-.02802-2.43909-.06543-4.87823-.13092-7.29822-4.50995-183.29587-111.34467-329.92877-242.47864-329.92877h0Z"/>
      <g>
        <path class="cls-2" d="M507.83643,747.31836h-21.15576v-13.89844h17.13818v-4.51074c0-5.90332-3.03418-8.2002-6.56006-8.2002-3.11621,0-6.06836,1.80469-6.51904,6.47852h-4.05908c.73779-7.91309,6.64209-10.53711,10.57812-10.53711,4.42773,0,10.57764,2.99316,10.57764,12.25879v8.11816h-17.1377v6.68359h17.1377v3.60742Z"/>
        <path class="cls-2" d="M515.17529,728.90918c0-9.38867,6.35498-12.25879,10.57812-12.25879,4.42773,0,10.57764,2.99316,10.57764,12.25879v6.9707c0,9.26562-6.1499,12.25879-10.57764,12.25879-4.22314,0-10.45508-2.99316-10.57812-12.25879v-6.9707ZM519.23389,728.90918v6.9707c0,.4502,0,.86035.04102,1.27051l11.52148-13.98145c-1.22998-1.72168-3.03418-2.45996-5.04297-2.45996-3.40332,0-6.51953,2.29688-6.51953,8.2002ZM532.14941,726.94141l-11.68506,14.26855c1.18896,2.00879,3.15674,2.86914,5.28906,2.86914,3.52588,0,6.51904-2.2959,6.51904-8.19922v-6.9707c0-.69629-.04102-1.35254-.12305-1.96777Z"/>
        <path class="cls-2" d="M564.82617,747.31836h-21.15625v-13.89844h17.13867v-4.51074c0-5.90332-3.03418-8.2002-6.56055-8.2002-3.11621,0-6.06836,1.80469-6.51855,6.47852h-4.05957c.73828-7.91309,6.64258-10.53711,10.57812-10.53711,4.42773,0,10.57812,2.99316,10.57812,12.25879v8.11816h-17.1377v6.68359h17.1377v3.60742Z"/>
        <path class="cls-2" d="M593.32031,721.07812l-10.94629,6.68359h10.94629v8.11816c0,9.26562-6.14941,12.25879-10.57715,12.25879-3.93652,0-9.84082-2.62402-10.57812-10.53711h4.05859c.45117,4.67383,3.40332,6.47754,6.51953,6.47754,3.52539,0,6.55957-2.2959,6.55957-8.19922v-4.51074h-13.0791v-3.60742l11.11133-6.68359h-15.16992v-3.60742h21.15527v3.60742Z"/>
      </g>
      <path class="cls-11" d="M424.44463,481.18111l-.01001-.09998c.01001-.02002.02002-.04004.03003-.06l-.02002.15997Z"/>
      <path class="cls-11" d="M767.29297,720.65723c-70.98242-11.32422-147.45312-17.06641-227.28809-17.06641-79.8418,0-156.31592,5.74219-227.29834,17.06641l-2.36328-14.8125c71.76172-11.44922,149.03076-17.25391,229.66162-17.25391,80.62305,0,157.88965,5.80469,229.65137,17.25391l-2.36328,14.8125Z"/>
      <polyline class="cls-10" points="399.29515 511.87638 399.33402 511.75687 399.33402 511.74599"/>
      <path class="cls-11" d="M775.62,513.82001c-34.33997,5.78998-70.65002,10.26996-108.15997,13.38-.49005.03998-.97003.06995-1.46002.09998,5.31-75.09003-14.60999-175.53003-88.39001-211.02002-8.87-4.34998-18.20001-7.72998-27.72998-10.42999,0,0,.27002-1.37.53998-2.69-3.45996-.39001-6.92999-.58997-10.41998-.58997-14.17999,0-26.94,2.5-38.32001,6.44-12.02997,4.16998-23.23999,10.40997-33.39001,18.10999-2.35999,1.78998-4.77997,3.63-7.29999,5.53998-.07001.04999-.14001.10004-.20996.16003-5.31006,4.03998-10.36005,8.39996-15.14001,13.02997-4.78003,4.63-9.31,9.53003-13.58002,14.66003-9.42999,11.31995-18.28998,23.10999-26.52997,35.32996-1.58002,2.35004-2.88,4.30005-3.56006,5.35004-2.09998,3.22998,6.21002,10.62,8.45001,13.84998,1.29004,1.87-.76996,5.16003-1.47998,7.45001,0,0-13.71002,13.96002-13.72003,13.96997-30.77997,23.99005-39.64996,46.07001-42.17999,55.95001-.90997,3.54999.67004,7.29999,3.89001,9.04999,2.78003,1.5,6.67999,2.89001,11.53003,2.78003-8.47003,7.40002-11.77002,10.01001-23.76001,10.01001-25.77002,0-40.35999-16.96002-37.5-42.52002,1.81,10.81,28.22998,36.95001,28.21997-6.01001-.01996-44.96997-11.01001-47.54999-18.72998-43.79999,10.59003-16.23999,33.32001-54.95001,42.84003-100.94.31995.04999.17999.03003.5.08002-1.41003,13.89996-3.46002,27.79999-6.14001,41.48999-1.81,9.07001-4.12,19.01001-6.67004,27.94-1.02997,3.95001-2.95996,9.82001-4.18994,13.77997,1-2.25995,3.40997-7.67999,4.38995-9.89996,12.35004-29.94,21.03003-61.46002,26.27002-93.44,20.12-26.13,43.41998-47.03998,69.40997-62.19,30.48004-17.78003,63.08002-26.78998,96.90002-26.78998s66.41998,9.00995,96.90002,26.78998c28.13995,16.40997,53.14996,39.54999,74.34998,68.77997,41.46997,57.19,64.34003,126.80005,64.37,206.30005Z"/>
      <polygon class="cls-9" points="407.52292 433.15771 396.6701 402.75693 399.63821 404.17416 376.91815 407.47299 377.60162 407.02719 371.62167 413.34158 375.755 405.68997 375.9147 405.39438 376.43878 405.24396 398.50635 398.91104 400.19302 398.427 401.47473 400.32843 419.5173 427.09515 407.52292 433.15771 407.52292 433.15771"/>
      <polygon class="cls-9" points="348.72516 414.28027 345.82474 422.70609 345.98264 421.96368 345.86356 440.50177 343.22137 422.15256 343.1571 421.70621 343.37939 421.40979 348.72516 414.28027 348.72516 414.28027"/>
      <path class="cls-9" d="M560.66388,317.58975c.21252.07471.42853.09256.30566.10797-.19624.05866-.35981.09186-.57159.26119-.34979.21885-.58917.6807-.63031.93851-.05939.50778.03308.33328-.03656.18127-2.06762-4.24801-6.42603-7.27466-10.29683-10.04943-16.36333-10.73053-36.02797-15.27104-55.4342-17.0294,13.12449.29914,26.32625,1.99521,39.03224,5.93152,9.54012,3.0547,19.05077,7.16259,26.73772,13.88705,2.40385,2.21597,7.15363,6.93997,3.42238,10.14476-1.06319.8187-2.83729.73796-3.85628.44698,0,.00006,1.32777-4.82044,1.32777-4.82044h0Z"/>
      <polygon class="cls-4" points="775.73681 512.3935 752.44513 498.28752 778.30751 540.70647 775.73681 512.3935"/>
      <path class="cls-11" d="M540.00488,557.40137c-91.72168,0-181.81641-7.82129-260.54541-22.61914l2.77051-14.74219c77.83057,14.62891,166.96777,22.36133,257.7749,22.36133,90.80078,0,179.93457-7.73242,257.76367-22.36133l2.77148,14.74219c-78.72852,14.79785-168.81934,22.61914-260.53516,22.61914Z"/>
      <path class="cls-9" d="M606.68634,358.8707c.7411-15.83075-3.2592-31.77839-8.84725-46.52128-1.26566-3.35934-2.88414-6.9949-4.33845-10.26251,2.28153,4.30676,4.65209,8.87203,6.56448,13.36689,5.91158,13.82955,10.38852,28.5288,10.61125,43.70196-.00022.00004-3.99003-.28505-3.99003-.28505h0Z"/>
      <path class="cls-11" d="M433.15997,528.79999c-10.9964-.79993-21.94684-1.69891-32.84998-2.70001l-4.84998-26.79999,13.96997,22.57001-2.95001-47.54004,10.88,23.96002,3.17004-47.14001,6.02997,26,12.78998-47.52997-1.20996,25.78998c12.85999-21.40997,34.85999-37.40997,34.85999-37.40997-21,22-43,73.19-39.84003,110.79999Z"/>
    </g>
    <g>
      <path class="cls-4" d="M373.69247,300.76007l6.42398,26.73693,12.0585-48.33858c-6.62726,6.85699-12.80688,14.04364-18.48248,21.60165Z"/>
      <polygon class="cls-4" points="392.18607 278.35749 394.84983 305.57077 413.39282 259.42323 392.18607 278.35749"/>
      <polygon class="cls-4" points="413.25286 259.14274 412.84199 286.3698 436.39093 242.6242 413.25286 259.14274"/>
      <polygon class="cls-4" points="436.11551 242.01412 431.89245 268.91481 461.34047 228.90176 436.11551 242.01412"/>
      <polygon class="cls-4" points="461.04831 228.70147 453.53219 254.87377 487.70073 218.80798 461.04831 228.70147"/>
      <polygon class="cls-4" points="487.29321 218.61751 475.38854 243.10751 515.24988 213.45446 487.29321 218.61751"/>
      <polygon class="cls-4" points="515.44398 212.89769 500.19211 235.45565 543.85001 211.74452 515.44398 212.89769"/>
      <path class="cls-4" d="M543.84045,211.29353l-18.63644,19.85355,46.86587-16.487c-9.96313-3.2056-19.41492-4.48575-28.22943-3.36655Z"/>
      <path class="cls-4" d="M572.1015,213.95753l-21.16578,17.13161,48.67402-9.95333c-9.51361-6.41678-18.80511-10.23705-27.50824-7.17828Z"/>
      <path class="cls-4" d="M599.67413,220.98247l-23.7005,13.40772,49.64893-1.79255c-6.71246-7.22827-15.52423-10.81877-25.94843-11.61517Z"/>
      <polygon class="cls-4" points="625.7563 232.26024 600.69227 242.90333 650.22567 246.73376 625.7563 232.26024"/>
      <polygon class="cls-4" points="649.99678 246.45081 623.75488 253.7202 672.36018 264.00389 649.99678 246.45081"/>
      <polygon class="cls-4" points="671.85774 263.68423 645.05268 268.47694 692.48838 283.24463 671.85774 263.68423"/>
      <path class="cls-4" d="M691.37384,282.7485l-27.20207,1.23606,45.0894,20.86092c-2.07257-9.76166-8.03497-17.12732-17.88733-22.09698Z"/>
      <polygon class="cls-4" points="709.70461 304.74658 682.49188 303.77263 725.74103 328.22137 709.70461 304.74658"/>
      <path class="cls-4" d="M724.37775,327.17407l-27.037-3.23757,41.06209,27.9667c-.7085-10.87686-4.43555-19.74936-14.02509-24.72913Z"/>
      <path class="cls-4" d="M738.25464,350.86285l-26.47643-6.36251,37.52782,32.55599c4.11401-.3215-.34967-9.49829-11.05139-26.19348Z"/>
      <path class="cls-4" d="M749.67401,377.2569l-26.04579-7.94345,35.50172,34.75424c.00946-9.56339-2.65173-18.5976-9.45593-26.81079Z"/>
      <path class="cls-4" d="M759.2337,403.86597l-25.26199-10.16435,32.36587,37.6919c5.42169.17151-1.04419-16.81897-7.10388-27.52756Z"/>
      <path class="cls-4" d="M766.18433,430.85724l-24.62916-11.6141,30.12257,39.50772c1.83075-9.39752.08014-18.69757-5.49341-27.89362Z"/>
      <path class="cls-4" d="M771.73682,458.68265l-23.29169-14.10598,25.86237,42.41894c3.3736,1.52081-.13263-17.57605-2.57068-28.31296Z"/>
      <polygon class="cls-4" points="774.73681 487.3935 751.44513 473.28752 777.30751 515.70647 774.73681 487.3935"/>
    </g>
    <path class="cls-6" d="M537.91677,302.58288s-71.47683-6.70288-135.9468,98.60712"/>
  </g>
  <g id="Ebene_2" data-name="Ebene 2">
    <g>
      <path class="cls-11" d="M445.69,659.5c-2.14001-16.58002-3.76001-33.22003-5.14001-49.89001-17.64996-.21997-39.39996-.95001-61.77997-2.06,2.48999,17.35999,5.5,34.63,8.98999,51.84998-4.13.17999-6.19.27002-10.29004.46002-6.28998-29.46997-11.56995-59.09003-13.65997-89.15002-.23999-3.56-.45001-7.13-.59998-10.70996-.02002-.56-.05005-1.13-.07001-1.69-18.91003-2.19-37.81-4.58002-56.53003-8.16003.85999,42.27002,7.10004,83.30005,18.59003,122.10004,1.87,6.32001,3.85999,12.53998,5.98999,18.64996,13.98999-1.66998,27.97998-3.19,42-4.56,15.01001-1.45996,30.02997-2.75,45.07001-3.87,2.62-.20001,5.23999-.39996,7.87-.57996,7.51001-.54004,15.02002-1.03003,22.52997-1.48004-1.08997-6.95996-2.07996-13.92999-2.96997-20.90997Z"/>
      <path class="cls-11" d="M585.58895,566.76001c-13.27729.31995-26.53508.48999-39.80263.51996-4.81217.02002-9.62433.01001-14.4365-.01996-13.18966-.07001-26.37925-.27002-39.5786-.62-11.09527-.28003-22.20023-.66003-33.315-1.14001.25328,31.28998,2.16258,62.78998,5.32848,94,.67215,6.69,1.41243,13.35999,2.20147,20.01001,3.82835-.18005,7.65665-.35004,11.49469-.51001.41887-.01001.83773-.03003,1.2566-.04999,4.27641-.17004,8.55282-.32001,12.82918-.46002,7.20853-.23999,14.40731-.42999,21.61578-.56-.84748-29.82001-1.05201-59.66998-1.37349-89.5,4.19847.06,6.27335.08002,10.35493.12.15583,29.73999.19484,59.48999.67215,89.21997,2.89312-.03998,5.78629-.06,8.66965-.07996,4.74397-.04004,9.47825-.04999,14.22222-.03003,4.80242,0,9.59508.03003,14.3975.08002.75009-29.73999.49681-59.5.6332-89.25,4.04257-.04999,6.08827-.08002,10.23804-.15002-.28253,29.84003-.04875,59.71002-1.32485,89.52002,5.32848.09003,10.66665.19,15.99513.32001,4.69528.10999,9.3808.23999,14.07602.39996.74034.02002,1.48069.04004,2.22103.07001,4.66602.15002,9.33211.33002,13.99813.53003.96437-6.35999,1.81185-12.76001,2.54245-19.17999,3.58476-31.29004,4.57839-63.13,5.007-94.5-12.65384.54999-25.28824.97998-37.92258,1.26001Z"/>
    </g>
    <path class="cls-11" d="M715.53003,597.64001c.44995-6.67004.66998-10.42004,1.02997-17.26001-2.16998.15997-7.25657.1574-9.41998.38995-2.14001.23004-2.99056,1.74809-3.03003,3.46002-.10999,4.77002-1.10999,14.77002-2.30999,24.70001.91003-.01001,2.05999-.02002,2.96001-.03003h.01001c21.62-.28998,43.21997-.71997,64.82996-1.08997,0,.03998,0,.06-.00995.09998v.06c-4.11005,21.03003-7.89001,40.85004-14.11005,60.32001-2.75,10.78003-11.53998,23.13-23.60999,21.29999-32.51001-4.14996-63.10999-7.57996-95.81-9.58997.85999-5.85999,1.64001-11.81,2.32001-17.73999.89001-7.77002,1.62-15.59003,2.21997-23.37,18.67004.62,36.56,1.38995,55.22003,2.28998-1.78998,7.47998-2.78998,11.47998-4.71002,18.72998,1.95001.14001,6.94223.62558,8.90002.35999,1.98999-.26996,3.16785-1.8036,3.77997-3.63995,3.21002-9.63,5.21002-17.63,7.41002-29.27002-21.19-.57001-48.30999-.08002-69.49999-.52002,1.5-20.83997,1.39996-29.83997,1.91998-44.64996.37-14.36005,5.72998-18.29999,14.77002-19.06,38.34998-3.38,76.53998-7.98999,114.70996-13.13-.22998,15.08997-1.27997,30.14001-2.27997,45.17999-20.42999.88-34.85999,1.71002-55.28998,2.46002Z"/>
  </g>
</svg>